<?xml version="1.0" standalone="no"?>
<!DOCTYPE svg PUBLIC "-//W3C//DTD SVG 20010904//EN"
 "http://www.w3.org/TR/2001/REC-SVG-20010904/DTD/svg10.dtd">
<svg version="1.0" xmlns="http://www.w3.org/2000/svg"
 width="85.000000pt" height="87.000000pt" viewBox="0 0 85.000000 87.000000"
 preserveAspectRatio="xMidYMid meet">

<g transform="translate(0.000000,87.000000) scale(0.100000,-0.100000)"
fill="#000000" stroke="none">
<path d="M375 844 c-166 -42 -270 -136 -316 -285 -38 -123 -11 -270 68 -367
51 -63 68 -77 138 -115 57 -30 65 -32 170 -32 104 0 113 2 170 32 96 50 167
134 204 241 69 201 -46 436 -249 507 -48 17 -151 27 -185 19z m117 -138 c46
-20 54 -32 61 -92 4 -37 1 -61 -14 -93 -10 -24 -19 -49 -19 -55 0 -20 42 -51
93 -70 62 -23 73 -36 86 -96 21 -99 48 -90 -260 -90 l-272 0 6 38 c4 20 13 60
22 89 15 50 16 51 68 63 28 7 67 21 84 32 28 17 32 24 27 46 -4 15 -13 37 -20
49 -17 28 -18 100 0 131 14 27 64 62 87 62 9 0 32 -6 51 -14z"/>
<path d="M402 430 c-12 -12 -22 -27 -22 -35 0 -22 26 -18 42 7 11 16 20 20 40
15 39 -10 42 -33 8 -69 -17 -17 -30 -35 -30 -39 0 -21 19 -15 53 17 49 47 50
87 0 113 -33 17 -67 13 -91 -9z"/>
<path d="M430 255 c0 -9 9 -15 25 -15 16 0 25 6 25 15 0 9 -9 15 -25 15 -16 0
-25 -6 -25 -15z"/>
</g>
</svg>
